<?xml version="1.0" encoding="UTF-8" standalone="no"?>
<!-- Generator: Adobe Illustrator 17.0.0, SVG Export Plug-In . SVG Version: 6.00 Build 0)  -->

<svg
   xmlns:dc="http://purl.org/dc/elements/1.1/"
   xmlns:cc="http://creativecommons.org/ns#"
   xmlns:rdf="http://www.w3.org/1999/02/22-rdf-syntax-ns#"
   xmlns:svg="http://www.w3.org/2000/svg"
   xmlns="http://www.w3.org/2000/svg"
   xmlns:sodipodi="http://sodipodi.sourceforge.net/DTD/sodipodi-0.dtd"
   xmlns:inkscape="http://www.inkscape.org/namespaces/inkscape"
   height="1.1997678in"
   viewBox="0 0 86.400012 86.383285"
   enable-background="new 0 0 72 46.8"
   id="Layer_1"
   width="1.2000002in"
   gorn="0"
   x="0px"
   y="0px"
   version="1.1"
   xml:space="preserve"
   inkscape:version="0.91 r13725"
   sodipodi:docname="breadboard.svg"><sodipodi:namedview
     pagecolor="#ffffff"
     bordercolor="#666666"
     borderopacity="1"
     objecttolerance="10"
     gridtolerance="10"
     guidetolerance="10"
     inkscape:pageopacity="0"
     inkscape:pageshadow="2"
     inkscape:window-width="1280"
     inkscape:window-height="754"
     id="namedview4885"
     showgrid="true"
     inkscape:document-units="in"
     inkscape:snap-object-midpoints="false"
     inkscape:snap-smooth-nodes="false"
     inkscape:object-paths="true"
     inkscape:object-nodes="true"
     inkscape:snap-others="true"
     fit-margin-top="0"
     fit-margin-left="0"
     fit-margin-right="0"
     fit-margin-bottom="0"
     inkscape:zoom="4"
     inkscape:cx="74.249587"
     inkscape:cy="51.083087"
     inkscape:window-x="0"
     inkscape:window-y="0"
     inkscape:window-maximized="1"
     inkscape:current-layer="layer1"><inkscape:grid
       type="xygrid"
       id="grid5427"
       originx="3.8603501e-06"
       originy="-0.00039277742" /></sodipodi:namedview><desc
     id="desc4522"><referenceFile>CP2102_breakout_breadboard-presne.svg</referenceFile></desc><metadata
     id="metadata3799"><rdf:RDF><cc:Work
         rdf:about=""><dc:format>image/svg+xml</dc:format><dc:type
           rdf:resource="http://purl.org/dc/dcmitype/StillImage" /><dc:title /></cc:Work></rdf:RDF></metadata><defs
     id="defs3797"><pattern
       patternUnits="userSpaceOnUse"
       width="3.6985259"
       height="3.6985259"
       patternTransform="matrix(0.80000008,0,0,0.80000008,31.598436,59.502206)"
       id="pattern7650"><path
         style="opacity:1;fill:#808000;fill-opacity:1;stroke:#000000;stroke-width:0;stroke-linejoin:round;stroke-miterlimit:4;stroke-dasharray:none;stroke-dashoffset:0;stroke-opacity:0.98540147"
         d="M 3.6985196,1.8492636 A 1.8492567,1.8492567 0 0 1 1.8492636,3.6985196 1.8492567,1.8492567 0 0 1 6.2499993e-6,1.8492636 1.8492567,1.8492567 0 0 1 1.8492636,6.2499993e-6 1.8492567,1.8492567 0 0 1 3.6985196,1.8492636 Z"
         id="circle6867"
         inkscape:connector-curvature="0" /></pattern></defs><g
     inkscape:groupmode="layer"
     id="layer1"
     inkscape:label="Layer 1"
     style="display:inline"
     transform="translate(4.0000003e-6,21.798909)"
     sodipodi:insensitive="true"><path
       style="opacity:1;fill:#003399;fill-opacity:1;stroke:#000000;stroke-width:0;stroke-linejoin:round;stroke-miterlimit:4;stroke-dasharray:none;stroke-dashoffset:0;stroke-opacity:0.98540147"
       d="m 0,-20.929688 0,101.660157 108,0 0,-101.660157 -108,0 z m 13.949219,8.060547 a 5.8499939,5.8499939 0 0 1 5.851562,5.8496098 5.8499939,5.8499939 0 0 1 -5.851562,5.8496093 5.8499939,5.8499939 0 0 1 -5.8496096,-5.8496093 5.8499939,5.8499939 0 0 1 5.8496096,-5.8496098 z m 80.101562,0 a 5.8499939,5.8499939 0 0 1 5.84961,5.8496098 5.8499939,5.8499939 0 0 1 -5.84961,5.8496093 5.8499939,5.8499939 0 0 1 -5.851562,-5.8496093 5.8499939,5.8499939 0 0 1 5.851562,-5.8496098 z M 13.949219,60.931641 a 5.8499939,5.8499939 0 0 1 5.851562,5.849609 5.8499939,5.8499939 0 0 1 -5.851562,5.849609 5.8499939,5.8499939 0 0 1 -5.8496096,-5.849609 5.8499939,5.8499939 0 0 1 5.8496096,-5.849609 z m 80.101562,0 a 5.8499939,5.8499939 0 0 1 5.84961,5.849609 5.8499939,5.8499939 0 0 1 -5.84961,5.849609 5.8499939,5.8499939 0 0 1 -5.851562,-5.849609 5.8499939,5.8499939 0 0 1 5.851562,-5.849609 z m -52.667969,0.419921 a 1.814392,1.814392 0 0 1 1.814454,1.814454 1.814392,1.814392 0 0 1 -1.814454,1.814453 1.814392,1.814392 0 0 1 -1.814453,-1.814453 1.814392,1.814392 0 0 1 1.814453,-1.814454 z m 8.994141,0 a 1.814392,1.814392 0 0 1 1.814453,1.814454 1.814392,1.814392 0 0 1 -1.814453,1.814453 1.814392,1.814392 0 0 1 -1.814453,-1.814453 1.814392,1.814392 0 0 1 1.814453,-1.814454 z m 8.998047,0 A 1.814392,1.814392 0 0 1 61.189453,63.166016 1.814392,1.814392 0 0 1 59.375,64.980469 1.814392,1.814392 0 0 1 57.560547,63.166016 1.814392,1.814392 0 0 1 59.375,61.351562 Z m 8.994141,0 a 1.814392,1.814392 0 0 1 1.814453,1.814454 1.814392,1.814392 0 0 1 -1.814453,1.814453 1.814392,1.814392 0 0 1 -1.814453,-1.814453 1.814392,1.814392 0 0 1 1.814453,-1.814454 z"
       transform="matrix(0.80000008,0,0,0.80000008,-1.5258791e-6,0)"
       id="rect7723"
       inkscape:connector-curvature="0" /><g
       style="display:inline"
       id="g12015"><rect
         y="21.401085"
         x="32.653866"
         height="26.818983"
         width="0.90837109"
         id="rect7936"
         style="opacity:1;fill:#808080;fill-opacity:1;stroke:#000000;stroke-width:0;stroke-linejoin:round;stroke-miterlimit:4;stroke-dasharray:none;stroke-dashoffset:0;stroke-opacity:0.98540147" /><rect
         style="opacity:0.9;fill:#808080;fill-opacity:1;stroke:#000000;stroke-width:0;stroke-linejoin:round;stroke-miterlimit:4;stroke-dasharray:none;stroke-dashoffset:0;stroke-opacity:0.98540147"
         id="rect7938"
         width="0.90837109"
         height="26.818983"
         x="39.875648"
         y="21.401085" /><rect
         y="21.401085"
         x="47.043945"
         height="26.818983"
         width="0.90837109"
         id="rect7940"
         style="opacity:0.9;fill:#808080;fill-opacity:1;stroke:#000000;stroke-width:0;stroke-linejoin:round;stroke-miterlimit:4;stroke-dasharray:none;stroke-dashoffset:0;stroke-opacity:0.98540147" /><rect
         style="opacity:0.9;fill:#808080;fill-opacity:1;stroke:#000000;stroke-width:0;stroke-linejoin:round;stroke-miterlimit:4;stroke-dasharray:none;stroke-dashoffset:0;stroke-opacity:0.98540147"
         id="rect7942"
         width="0.90837109"
         height="26.818983"
         x="54.261562"
         y="21.401085" /></g><g
       style="display:inline"
       id="g7841"><g
         id="g4843"
         transform="matrix(0,1.0011748,-0.99956778,0,21.482649,6.9269858)"><g
           id="g4845"><g
             id="g4847"><g
               style="font-style:normal;font-variant:normal;font-weight:normal;font-stretch:normal;font-size:3.9985168px;font-family:'Droid Sans';-inkscape-font-specification:'Droid Sans, Normal';text-align:start;writing-mode:lr-tb;text-anchor:start;fill:#ffffff"
               font-size="3.5"
               gorn="0.3.0.0.0.3.0.0.0.1.0.0.0"
               id="text_5_"><text
                 y="-31.508184"
                 x="32.471508"
                 gorn="0.3.0.0.0.3.0.0.0.1.0.0.0.0"
                 id="tspan8796">VCC</text>
</g></g></g></g><g
         id="g4851"
         transform="matrix(0,1.0011748,-0.99956778,0,21.482649,7.8498431)"><g
           id="g4853"><g
             id="g4855"><g
               style="font-style:normal;font-variant:normal;font-weight:normal;font-stretch:normal;font-size:3.9985168px;font-family:'Droid Sans';-inkscape-font-specification:'Droid Sans, Normal';text-align:start;writing-mode:lr-tb;text-anchor:start;fill:#ffffff"
               font-size="3.5"
               gorn="0.3.0.0.0.3.0.0.0.2.0.0.0"
               id="text_4_"><text
                 y="-24.410654"
                 x="33.650517"
                 gorn="0.3.0.0.0.3.0.0.0.2.0.0.0.0"
                 id="tspan8794">D-</text>
</g></g></g></g><g
         id="g4859"
         transform="matrix(0,1.0011748,-0.99956778,0,21.482649,8.9867973)"><g
           id="g4861"><g
             id="g4863"><g
               style="font-style:normal;font-variant:normal;font-weight:normal;font-stretch:normal;font-size:3.9985168px;font-family:'Droid Sans';-inkscape-font-specification:'Droid Sans, Normal';text-align:start;writing-mode:lr-tb;text-anchor:start;fill:#ffffff"
               font-size="3.5"
               gorn="0.3.0.0.0.3.0.0.0.3.0.0.0"
               id="text_3_"><text
                 y="-17.335382"
                 x="32.514896"
                 gorn="0.3.0.0.0.3.0.0.0.3.0.0.0.0"
                 id="tspan8792">D+</text>
</g></g></g></g><g
         id="g4867"
         transform="matrix(0,1.0011748,-0.99956778,0,21.482649,7.3854195)"><g
           id="g4869"><g
             id="g4871"><g
               style="font-style:normal;font-variant:normal;font-weight:normal;font-stretch:normal;font-size:3.9985168px;font-family:'Droid Sans';-inkscape-font-specification:'Droid Sans, Normal';text-align:start;writing-mode:lr-tb;text-anchor:start;fill:#ffffff"
               font-size="3.5"
               gorn="0.3.0.0.0.3.0.0.0.4.0.0.0"
               id="text_2_"><text
                 y="-10.11104"
                 x="31.183842"
                 gorn="0.3.0.0.0.3.0.0.0.4.0.0.0.0"
                 id="tspan8790">GND</text>
</g></g></g></g></g><g
       style="display:inline;fill:#808080"
       id="g7891"><path
         id="path7863"
         transform="matrix(0.80000008,0,0,0.80000008,-1.5258791e-6,0)"
         d="m 11.304688,-14.871094 c -0.142204,0.01075 -0.303949,0.05204 -0.490235,0.126953 -1.091924,0.439105 -0.780715,1.160214 -0.06641,2.007813 a 6.5818351,6.5477121 0 0 0 -2.4843751,2.429687 c -0.8397238,-0.725054 -1.5595177,-1.047392 -2.0195313,0.03125 -0.4600674,1.0787685 0.2730076,1.3699759 1.3808594,1.4667972 a 6.5818351,6.5477121 0 0 0 -0.2558594,1.7851563 6.5818351,6.5477121 0 0 0 0.2226563,1.6777344 c -1.1071733,0.078354 -1.8432885,0.3581993 -1.4023438,1.4433593 0.4415962,1.0867627 1.1670072,0.7757577 2.0195313,0.064453 a 6.5818351,6.5477121 0 0 0 2.4414066,2.4726562 c -0.7288161,0.83535827 -1.0530019,1.55214197 0.03125,2.00976565 1.083568,0.45733535 1.377056,-0.2723443 1.474609,-1.37304687 a 6.5818351,6.5477121 0 0 0 1.794922,0.25390624 6.5818351,6.5477121 0 0 0 1.6875,-0.22265624 c 0.07879,1.10126988 0.360453,1.83510442 1.451172,1.39648437 1.092882,-0.43948996 0.780107,-1.16315486 0.06445,-2.01171875 a 6.5818351,6.5477121 0 0 0 2.482422,-2.4257812 c 0.840238,0.7257883 1.56125,1.0479061 2.021484,-0.03125 0.460039,-1.0787012 -0.273124,-1.3699569 -1.380859,-1.4667969 a 6.5818351,6.5477121 0 0 0 0.255859,-1.7871094 6.5818351,6.5477121 0 0 0 -0.222656,-1.6777344 c 1.107172,-0.078354 1.843289,-0.3581996 1.402344,-1.4433589 -0.441597,-1.086763 -1.167008,-0.77576 -2.019532,-0.06445 a 6.5818351,6.5477121 0 0 0 -2.441406,-2.472657 c 0.728715,-0.835287 1.05293,-1.550218 -0.03125,-2.007812 -1.0843,-0.457645 -1.377258,0.271094 -1.474609,1.373047 a 6.5818351,6.5477121 0 0 0 -1.794922,-0.253906 6.5818351,6.5477121 0 0 0 -1.6875,0.222656 c -0.06517,-0.914236 -0.268064,-1.575861 -0.958984,-1.523438 z m 2.644531,2.001953 a 5.8499939,5.8499939 0 0 1 5.851562,5.8496098 5.8499939,5.8499939 0 0 1 -5.851562,5.8496093 5.8499939,5.8499939 0 0 1 -5.8496096,-5.8496093 5.8499939,5.8499939 0 0 1 5.8496096,-5.8496098 z"
         style="opacity:1;fill:#808080;fill-opacity:1;stroke:#000000;stroke-width:0;stroke-linejoin:round;stroke-miterlimit:4;stroke-dasharray:none;stroke-dashoffset:0;stroke-opacity:0.98540147"
         inkscape:connector-curvature="0" /><path
         inkscape:connector-curvature="0"
         style="opacity:1;fill:#808080;fill-opacity:1;stroke:#000000;stroke-width:0;stroke-linejoin:round;stroke-miterlimit:4;stroke-dasharray:none;stroke-dashoffset:0;stroke-opacity:0.98540147"
         d="m 73.132427,-11.896876 c -0.113763,0.0086 -0.243159,0.04163 -0.392188,0.101562 -0.873539,0.351284 -0.624572,0.928171 -0.05312,1.606251 a 5.2654686,5.2381702 0 0 0 -1.9875,1.9437494 c -0.671779,-0.5800433 -1.247614,-0.8379137 -1.615625,0.025 -0.368054,0.8630149 0.218406,1.0959808 1.104687,1.1734379 a 5.2654686,5.2381702 0 0 0 -0.204687,1.4281251 5.2654686,5.2381702 0 0 0 0.178125,1.3421877 c -0.885739,0.062683 -1.474631,0.2865595 -1.121875,1.1546875 0.353277,0.8694103 0.933605,0.6206063 1.615625,0.051563 a 5.2654686,5.2381702 0 0 0 1.953125,1.9781252 c -0.583053,0.66828665 -0.842401,1.24171367 0.025,1.60781265 0.866855,0.36586832 1.101645,-0.21787546 1.179688,-1.0984376 a 5.2654686,5.2381702 0 0 0 1.435937,0.20312501 5.2654686,5.2381702 0 0 0 1.35,-0.17812501 c 0.06303,0.88101599 0.288363,1.46808368 1.160938,1.11718761 0.874306,-0.35159201 0.624086,-0.93052399 0.05156,-1.60937516 a 5.2654686,5.2381702 0 0 0 1.985937,-1.9406252 c 0.672191,0.5806307 1.249001,0.838325 1.617188,-0.025 0.368031,-0.862961 -0.218499,-1.0959656 -1.104688,-1.1734376 a 5.2654686,5.2381702 0 0 0 0.204688,-1.4296877 5.2654686,5.2381702 0 0 0 -0.178125,-1.3421876 c 0.885738,-0.062683 1.474631,-0.2865597 1.121875,-1.1546874 -0.353277,-0.8694105 -0.933606,-0.6206081 -1.615626,-0.051562 a 5.2654686,5.2381702 0 0 0 -1.953125,-1.9781258 c 0.582972,-0.668229 0.842345,-1.240174 -0.025,-1.60625 -0.86744,-0.366116 -1.101806,0.216876 -1.179687,1.098438 a 5.2654686,5.2381702 0 0 0 -1.435938,-0.203125 5.2654686,5.2381702 0 0 0 -1.35,0.178125 c -0.05214,-0.731389 -0.214451,-1.260689 -0.767187,-1.21875 z m 2.115625,1.601562 a 4.6799956,4.6799956 0 0 1 4.68125,4.6796885 4.6799956,4.6799956 0 0 1 -4.68125,4.67968789 4.6799956,4.6799956 0 0 1 -4.679688,-4.67968789 4.6799956,4.6799956 0 0 1 4.679688,-4.6796885 z"
         id="path7885" /><path
         inkscape:connector-curvature="0"
         style="opacity:1;fill:#808080;fill-opacity:1;stroke:#000000;stroke-width:0;stroke-linejoin:round;stroke-miterlimit:4;stroke-dasharray:none;stroke-dashoffset:0;stroke-opacity:0.98540147"
         d="m 9.0437498,47.147539 c -0.1137632,0.0086 -0.2431592,0.04163 -0.3921881,0.101563 -0.8735392,0.351284 -0.624572,0.928171 -0.053125,1.60625 a 5.2654686,5.2381702 0 0 0 -1.9875002,1.94375 c -0.6717792,-0.580043 -1.2476143,-0.837913 -1.6156252,0.025 -0.368054,0.863015 0.2184061,1.095981 1.1046876,1.173438 a 5.2654686,5.2381702 0 0 0 -0.2046876,1.428125 5.2654686,5.2381702 0 0 0 0.1781251,1.342188 c -0.8857387,0.06268 -1.4746309,0.286559 -1.1218752,1.154687 0.353277,0.869411 0.9336059,0.620607 1.6156253,0.05156 a 5.2654686,5.2381702 0 0 0 1.9531254,1.978125 c -0.5830529,0.668287 -0.8424016,1.241714 0.025,1.607813 0.8668545,0.365868 1.1016449,-0.217876 1.1796873,-1.098438 a 5.2654686,5.2381702 0 0 0 1.4359378,0.203125 5.2654686,5.2381702 0 0 0 1.35,-0.178125 c 0.06303,0.881016 0.288363,1.468084 1.160938,1.117188 0.874306,-0.351592 0.624086,-0.930524 0.05156,-1.609375 a 5.2654686,5.2381702 0 0 0 1.98594,-1.940622 c 0.672191,0.58063 1.249,0.838325 1.617188,-0.025 0.368031,-0.862961 -0.2185,-1.095966 -1.104688,-1.173438 a 5.2654686,5.2381702 0 0 0 0.204688,-1.429688 5.2654686,5.2381702 0 0 0 -0.178125,-1.342187 c 0.885737,-0.06268 1.474631,-0.28656 1.121875,-1.154688 -0.353278,-0.86941 -0.933606,-0.620608 -1.615626,-0.05156 a 5.2654686,5.2381702 0 0 0 -1.953125,-1.978126 c 0.582972,-0.66823 0.842344,-1.240174 -0.025,-1.60625 -0.86744,-0.366116 -1.101806,0.216875 -1.179687,1.098438 A 5.2654686,5.2381702 0 0 0 11.160937,48.188165 5.2654686,5.2381702 0 0 0 9.8109371,48.36629 C 9.7587979,47.634901 9.5964858,47.105601 9.0437498,47.147539 Z m 2.1156252,1.601563 a 4.6799956,4.6799956 0 0 1 4.68125,4.679688 4.6799956,4.6799956 0 0 1 -4.68125,4.679688 4.6799956,4.6799956 0 0 1 -4.6796884,-4.679688 4.6799956,4.6799956 0 0 1 4.6796884,-4.679688 z"
         id="path7887" /><path
         id="path7889"
         d="m 73.132427,47.14754 c -0.113763,0.0086 -0.243159,0.04163 -0.392188,0.101562 -0.873539,0.351284 -0.624572,0.928171 -0.05312,1.606251 a 5.2654686,5.2381702 0 0 0 -1.9875,1.943749 c -0.671779,-0.580043 -1.247614,-0.837913 -1.615625,0.025 -0.368054,0.863015 0.218406,1.095981 1.104687,1.173438 a 5.2654686,5.2381702 0 0 0 -0.204687,1.428125 5.2654686,5.2381702 0 0 0 0.178125,1.342188 c -0.885739,0.06268 -1.474631,0.286559 -1.121875,1.154687 0.353277,0.869411 0.933605,0.620607 1.615625,0.05156 a 5.2654686,5.2381702 0 0 0 1.953125,1.978126 c -0.583053,0.668286 -0.842401,1.241713 0.025,1.607812 0.866855,0.365869 1.101645,-0.217875 1.179688,-1.098437 a 5.2654686,5.2381702 0 0 0 1.435937,0.203125 5.2654686,5.2381702 0 0 0 1.35,-0.178125 c 0.06303,0.881016 0.288363,1.468083 1.160938,1.117187 0.874306,-0.351592 0.624086,-0.930524 0.05156,-1.609375 a 5.2654686,5.2381702 0 0 0 1.985937,-1.940622 c 0.672191,0.580631 1.249001,0.838325 1.617188,-0.025 0.368031,-0.862961 -0.218499,-1.095966 -1.104688,-1.173438 a 5.2654686,5.2381702 0 0 0 0.204688,-1.429687 5.2654686,5.2381702 0 0 0 -0.178125,-1.342188 c 0.885738,-0.06268 1.474631,-0.28656 1.121875,-1.154687 -0.353277,-0.869411 -0.933606,-0.620608 -1.615626,-0.05156 a 5.2654686,5.2381702 0 0 0 -1.953125,-1.978126 c 0.582972,-0.668229 0.842345,-1.240174 -0.025,-1.60625 -0.86744,-0.366116 -1.101806,0.216876 -1.179687,1.098438 a 5.2654686,5.2381702 0 0 0 -1.435938,-0.203125 5.2654686,5.2381702 0 0 0 -1.35,0.178125 c -0.05214,-0.731389 -0.214451,-1.260689 -0.767187,-1.21875 z m 2.115625,1.601562 a 4.6799956,4.6799956 0 0 1 4.68125,4.679688 4.6799956,4.6799956 0 0 1 -4.68125,4.679688 4.6799956,4.6799956 0 0 1 -4.679688,-4.679688 4.6799956,4.6799956 0 0 1 4.679688,-4.679688 z"
         style="opacity:1;fill:#808080;fill-opacity:1;stroke:#000000;stroke-width:0;stroke-linejoin:round;stroke-miterlimit:4;stroke-dasharray:none;stroke-dashoffset:0;stroke-opacity:0.98540147"
         inkscape:connector-curvature="0" /></g><g
       id="g7910"
       style="display:inline;fill:#808080"><circle
         r="4.6799941"
         cy="8.0647755"
         cx="20.160007"
         id="path7906"
         style="opacity:1;fill:#808080;fill-opacity:1;stroke:#000000;stroke-width:0;stroke-linejoin:round;stroke-miterlimit:4;stroke-dasharray:none;stroke-dashoffset:0;stroke-opacity:0.98540147" /><circle
         style="opacity:1;fill:#808080;fill-opacity:1;stroke:#000000;stroke-width:0;stroke-linejoin:round;stroke-miterlimit:4;stroke-dasharray:none;stroke-dashoffset:0;stroke-opacity:0.98540147"
         id="circle7908"
         cx="66.239998"
         cy="8.0647755"
         r="4.6799941" /></g><g
       style="display:inline"
       id="g7930"><rect
         y="-21.798904"
         x="20.160007"
         height="43.199989"
         width="46.07999"
         id="rect7902"
         style="opacity:1;fill:#999999;fill-opacity:1;stroke:#000000;stroke-width:0;stroke-linejoin:round;stroke-miterlimit:4;stroke-dasharray:none;stroke-dashoffset:0;stroke-opacity:0.98540147" /><g
         transform="translate(0,-6.6524699)"
         id="g7926"><path
           style="opacity:1;fill:#666666;fill-opacity:1;stroke:#000000;stroke-width:0;stroke-linejoin:round;stroke-miterlimit:4;stroke-dasharray:none;stroke-dashoffset:0;stroke-opacity:0.98540147"
           d="m 31.320319,-11.562451 a 2.5199959,2.5199959 0 0 0 -2.520313,2.5203128 l 0,19.4390642 a 2.5199959,2.5199959 0 0 0 2.520313,2.520313 2.5199959,2.5199959 0 0 0 2.520312,-2.520313 l 0,-19.4390642 a 2.5199959,2.5199959 0 0 0 -2.520312,-2.5203128 z"
           id="path7914"
           inkscape:connector-curvature="0" /><path
           inkscape:connector-curvature="0"
           id="path7924"
           d="m 55.080322,-11.562451 a 2.5199959,2.5199959 0 0 0 -2.520313,2.5203128 l 0,19.4390642 a 2.5199959,2.5199959 0 0 0 2.520313,2.520313 2.5199959,2.5199959 0 0 0 2.520312,-2.520313 l 0,-19.4390642 a 2.5199959,2.5199959 0 0 0 -2.520312,-2.5203128 z"
           style="opacity:1;fill:#666666;fill-opacity:1;stroke:#000000;stroke-width:0;stroke-linejoin:round;stroke-miterlimit:4;stroke-dasharray:none;stroke-dashoffset:0;stroke-opacity:0.98540147" /></g></g></g><g
     inkscape:groupmode="layer"
     id="layer2"
     inkscape:label="Layer 2"
     style="display:inline"
     transform="translate(4.0000003e-6,21.798909)"
     sodipodi:insensitive="true"><g
       id="g7707"
       transform="translate(0,0.34848022)"><ellipse
         ry="2.0544107"
         rx="2.0511131"
         style="fill:none;stroke:#9a916c;stroke-width:1.22445405"
         cx="54.695698"
         cy="50.18478"
         gorn="0.3.0.0.0.2.0.0.0.1"
         id="connector10pin" /><ellipse
         ry="2.0544107"
         rx="2.0511131"
         style="fill:none;stroke:#9a916c;stroke-width:1.22445405"
         cx="47.499809"
         cy="50.18478"
         gorn="0.3.0.0.0.2.0.0.0.2"
         id="connector9pin" /><ellipse
         ry="2.0544107"
         rx="2.0511131"
         style="fill:none;stroke:#9a916c;stroke-width:1.22445405"
         cx="40.301922"
         cy="50.18478"
         gorn="0.3.0.0.0.2.0.0.0.3"
         id="connector8pin" /><ellipse
         ry="2.0544107"
         rx="2.0511131"
         style="fill:none;stroke:#9a916c;stroke-width:1.22445405"
         cx="33.106037"
         cy="50.18478"
         gorn="0.3.0.0.0.2.0.0.0.4"
         id="connector7pin" /></g></g></svg>