<?xml version="1.0" encoding="UTF-8" standalone="no"?>
<!-- Generator: Adobe Illustrator 17.0.0, SVG Export Plug-In . SVG Version: 6.00 Build 0)  -->

<svg
   xmlns:dc="http://purl.org/dc/elements/1.1/"
   xmlns:cc="http://creativecommons.org/ns#"
   xmlns:rdf="http://www.w3.org/1999/02/22-rdf-syntax-ns#"
   xmlns:svg="http://www.w3.org/2000/svg"
   xmlns="http://www.w3.org/2000/svg"
   xmlns:sodipodi="http://sodipodi.sourceforge.net/DTD/sodipodi-0.dtd"
   xmlns:inkscape="http://www.inkscape.org/namespaces/inkscape"
   height="1.1997678in"
   viewBox="0 0 86.400012 86.383285"
   enable-background="new 0 0 72 46.8"
   id="Layer_1"
   width="1.2000002in"
   gorn="0"
   x="0px"
   y="0px"
   version="1.1"
   xml:space="preserve"
   inkscape:version="0.91 r13725"
   sodipodi:docname="pcb.svg"><sodipodi:namedview
     pagecolor="#ffffff"
     bordercolor="#666666"
     borderopacity="1"
     objecttolerance="10"
     gridtolerance="10"
     guidetolerance="10"
     inkscape:pageopacity="0"
     inkscape:pageshadow="2"
     inkscape:window-width="1280"
     inkscape:window-height="754"
     id="namedview4885"
     showgrid="true"
     inkscape:document-units="in"
     inkscape:snap-object-midpoints="false"
     inkscape:snap-smooth-nodes="false"
     inkscape:object-paths="true"
     inkscape:object-nodes="true"
     inkscape:snap-others="true"
     fit-margin-top="0"
     fit-margin-left="0"
     fit-margin-right="0"
     fit-margin-bottom="0"
     inkscape:zoom="8"
     inkscape:cx="58.67137"
     inkscape:cy="29.625755"
     inkscape:window-x="0"
     inkscape:window-y="0"
     inkscape:window-maximized="1"
     inkscape:current-layer="layer2"><inkscape:grid
       type="xygrid"
       id="grid5427"
       originx="3.8603501e-06"
       originy="-0.00039277742" /></sodipodi:namedview><desc
     id="desc4522"><referenceFile>CP2102_breakout_breadboard-presne.svg</referenceFile></desc><metadata
     id="metadata3799"><rdf:RDF><cc:Work
         rdf:about=""><dc:format>image/svg+xml</dc:format><dc:type
           rdf:resource="http://purl.org/dc/dcmitype/StillImage" /><dc:title></dc:title></cc:Work></rdf:RDF></metadata><defs
     id="defs3797"><pattern
       patternUnits="userSpaceOnUse"
       width="3.6985259"
       height="3.6985259"
       patternTransform="matrix(0.80000008,0,0,0.80000008,31.598436,59.502206)"
       id="pattern7650"><path
         style="opacity:1;fill:#808000;fill-opacity:1;stroke:#000000;stroke-width:0;stroke-linejoin:round;stroke-miterlimit:4;stroke-dasharray:none;stroke-dashoffset:0;stroke-opacity:0.98540147"
         d="M 3.6985196,1.8492636 A 1.8492567,1.8492567 0 0 1 1.8492636,3.6985196 1.8492567,1.8492567 0 0 1 6.2499993e-6,1.8492636 1.8492567,1.8492567 0 0 1 1.8492636,6.2499993e-6 1.8492567,1.8492567 0 0 1 3.6985196,1.8492636 Z"
         id="circle6867"
         inkscape:connector-curvature="0" /></pattern></defs><g
     inkscape:groupmode="layer"
     id="layer1"
     inkscape:label="Layer 1"
     style="display:inline"
     transform="translate(4.0000003e-6,21.798909)"><path
       style="opacity:1;fill:#ffffff;fill-opacity:1;stroke:#000000;stroke-width:0;stroke-linejoin:round;stroke-miterlimit:4;stroke-dasharray:none;stroke-dashoffset:0;stroke-opacity:0.98540147"
       d="m 0,-20.929688 0,101.660157 108,0 0,-101.660157 -108,0 z m 13.949219,8.060547 a 5.8499939,5.8499939 0 0 1 5.851562,5.8496098 5.8499939,5.8499939 0 0 1 -5.851562,5.8496093 5.8499939,5.8499939 0 0 1 -5.8496096,-5.8496093 5.8499939,5.8499939 0 0 1 5.8496096,-5.8496098 z m 80.101562,0 a 5.8499939,5.8499939 0 0 1 5.84961,5.8496098 5.8499939,5.8499939 0 0 1 -5.84961,5.8496093 5.8499939,5.8499939 0 0 1 -5.851562,-5.8496093 5.8499939,5.8499939 0 0 1 5.851562,-5.8496098 z M 13.949219,60.931641 a 5.8499939,5.8499939 0 0 1 5.851562,5.849609 5.8499939,5.8499939 0 0 1 -5.851562,5.849609 5.8499939,5.8499939 0 0 1 -5.8496096,-5.849609 5.8499939,5.8499939 0 0 1 5.8496096,-5.849609 z m 80.101562,0 a 5.8499939,5.8499939 0 0 1 5.84961,5.849609 5.8499939,5.8499939 0 0 1 -5.84961,5.849609 5.8499939,5.8499939 0 0 1 -5.851562,-5.849609 5.8499939,5.8499939 0 0 1 5.851562,-5.849609 z m -52.667969,0.419921 a 1.814392,1.814392 0 0 1 1.814454,1.814454 1.814392,1.814392 0 0 1 -1.814454,1.814453 1.814392,1.814392 0 0 1 -1.814453,-1.814453 1.814392,1.814392 0 0 1 1.814453,-1.814454 z m 8.994141,0 a 1.814392,1.814392 0 0 1 1.814453,1.814454 1.814392,1.814392 0 0 1 -1.814453,1.814453 1.814392,1.814392 0 0 1 -1.814453,-1.814453 1.814392,1.814392 0 0 1 1.814453,-1.814454 z m 8.998047,0 A 1.814392,1.814392 0 0 1 61.189453,63.166016 1.814392,1.814392 0 0 1 59.375,64.980469 1.814392,1.814392 0 0 1 57.560547,63.166016 1.814392,1.814392 0 0 1 59.375,61.351562 Z m 8.994141,0 a 1.814392,1.814392 0 0 1 1.814453,1.814454 1.814392,1.814392 0 0 1 -1.814453,1.814453 1.814392,1.814392 0 0 1 -1.814453,-1.814453 1.814392,1.814392 0 0 1 1.814453,-1.814454 z"
       transform="matrix(0.80000008,0,0,0.80000008,-1.5258791e-6,0)"
       id="rect7723"
       inkscape:connector-curvature="0" /></g><g
     inkscape:groupmode="layer"
     id="layer2"
     inkscape:label="copper0"
     style="display:inline"
     transform="translate(4.0000003e-6,21.798909)"><g
       id="copper0"
       transform="translate(0,0.34848022)"><ellipse
         ry="2.0544107"
         rx="2.0511131"
         style="fill:none;stroke:#f5bd18;stroke-width:1.22445405"
         cx="54.695698"
         cy="50.18478"
         gorn="0.3.0.0.0.2.0.0.0.1"
         id="connector10pin" /><ellipse
         ry="2.0544107"
         rx="2.0511131"
         style="fill:none;stroke:#f5bd18;stroke-width:1.22445405"
         cx="47.499809"
         cy="50.18478"
         gorn="0.3.0.0.0.2.0.0.0.2"
         id="connector9pin" /><ellipse
         ry="2.0544107"
         rx="2.0511131"
         style="fill:none;stroke:#f5bd18;stroke-width:1.22445405"
         cx="40.301922"
         cy="50.18478"
         gorn="0.3.0.0.0.2.0.0.0.3"
         id="connector8pin" /><ellipse
         ry="2.0544107"
         rx="2.0511131"
         style="fill:none;stroke:#f5bd18;stroke-width:1.22445405"
         cx="33.106037"
         cy="50.18478"
         gorn="0.3.0.0.0.2.0.0.0.4"
         id="connector7pin" /></g><g
       transform="translate(0.00326918,-0.0302034)"
       style="display:inline;fill:#4d4d4d"
       id="g7841"><g
         id="g4843"
         transform="matrix(0,1.0011748,-0.99956778,0,21.482649,6.9269858)"
         style="fill:#4d4d4d"><g
           id="g4845"
           style="fill:#4d4d4d"><g
             id="g4847"
             style="fill:#4d4d4d"><g
               style="font-style:normal;font-variant:normal;font-weight:normal;font-stretch:normal;font-size:3.9985168px;font-family:'Droid Sans';-inkscape-font-specification:'Droid Sans, Normal';text-align:start;writing-mode:lr-tb;text-anchor:start;fill:#4d4d4d"
               font-size="3.5"
               gorn="0.3.0.0.0.3.0.0.0.1.0.0.0"
               id="text_5_"><text
                 y="-31.508184"
                 x="32.471508"
                 gorn="0.3.0.0.0.3.0.0.0.1.0.0.0.0"
                 id="tspan8796"
                 style="fill:#4d4d4d">VCC</text>
</g></g></g></g><g
         id="g4851"
         transform="matrix(0,1.0011748,-0.99956778,0,21.482649,7.8498431)"
         style="fill:#4d4d4d"><g
           id="g4853"
           style="fill:#4d4d4d"><g
             id="g4855"
             style="fill:#4d4d4d"><g
               style="font-style:normal;font-variant:normal;font-weight:normal;font-stretch:normal;font-size:3.9985168px;font-family:'Droid Sans';-inkscape-font-specification:'Droid Sans, Normal';text-align:start;writing-mode:lr-tb;text-anchor:start;fill:#4d4d4d"
               font-size="3.5"
               gorn="0.3.0.0.0.3.0.0.0.2.0.0.0"
               id="text_4_"><text
                 y="-24.410654"
                 x="33.650517"
                 gorn="0.3.0.0.0.3.0.0.0.2.0.0.0.0"
                 id="tspan8794"
                 style="fill:#4d4d4d">D-</text>
</g></g></g></g><g
         id="g4859"
         transform="matrix(0,1.0011748,-0.99956778,0,21.482649,8.9867973)"
         style="fill:#4d4d4d"><g
           id="g4861"
           style="fill:#4d4d4d"><g
             id="g4863"
             style="fill:#4d4d4d"><g
               style="font-style:normal;font-variant:normal;font-weight:normal;font-stretch:normal;font-size:3.9985168px;font-family:'Droid Sans';-inkscape-font-specification:'Droid Sans, Normal';text-align:start;writing-mode:lr-tb;text-anchor:start;fill:#4d4d4d"
               font-size="3.5"
               gorn="0.3.0.0.0.3.0.0.0.3.0.0.0"
               id="text_3_"><text
                 y="-17.335382"
                 x="32.514896"
                 gorn="0.3.0.0.0.3.0.0.0.3.0.0.0.0"
                 id="tspan8792"
                 style="fill:#4d4d4d">D+</text>
</g></g></g></g><g
         id="g4867"
         transform="matrix(0,1.0011748,-0.99956778,0,21.482649,7.3854195)"
         style="fill:#4d4d4d"><g
           id="g4869"
           style="fill:#4d4d4d"><g
             id="g4871"
             style="fill:#4d4d4d"><g
               style="font-style:normal;font-variant:normal;font-weight:normal;font-stretch:normal;font-size:3.9985168px;font-family:'Droid Sans';-inkscape-font-specification:'Droid Sans, Normal';text-align:start;writing-mode:lr-tb;text-anchor:start;fill:#4d4d4d"
               font-size="3.5"
               gorn="0.3.0.0.0.3.0.0.0.4.0.0.0"
               id="text_2_"><text
                 y="-10.11104"
                 x="31.183842"
                 gorn="0.3.0.0.0.3.0.0.0.4.0.0.0.0"
                 id="tspan8790"
                 style="fill:#4d4d4d">GND</text>
</g></g></g></g></g></g></svg>